<?xml version="1.0" standalone="no"?>
<!DOCTYPE svg PUBLIC "-//W3C//DTD SVG 20010904//EN"
 "http://www.w3.org/TR/2001/REC-SVG-20010904/DTD/svg10.dtd">
<svg version="1.0" xmlns="http://www.w3.org/2000/svg"
 width="1000.000000pt" height="500.000000pt" viewBox="0 0 1000.000000 500.000000"
 preserveAspectRatio="xMidYMid meet">

<g transform="translate(0.000000,500.000000) scale(0.100000,-0.100000)"
fill="#000000" stroke="none">
<path d="M1941 4419 c-47 -5 -86 -11 -88 -13 -2 -2 -62 -221 -133 -487 -72
-266 -132 -490 -135 -497 -4 -10 38 -12 202 -10 l206 3 82 305 82 305 67 3
c87 4 275 -28 396 -68 235 -77 423 -193 606 -375 237 -236 379 -509 435 -836
18 -106 20 -149 16 -294 -3 -93 -12 -197 -19 -230 l-13 -60 -992 -3 c-546 -1
-993 1 -993 5 0 5 25 100 55 211 30 112 55 210 55 218 0 12 -33 14 -201 12
l-202 -3 -83 -310 c-46 -170 -84 -319 -84 -330 0 -41 22 -97 53 -132 64 -72
-17 -67 1171 -73 l1069 -5 -74 -110 c-130 -195 -344 -388 -554 -499 l-69 -37
-61 -227 c-40 -149 -58 -228 -50 -230 20 -5 187 58 310 118 503 243 879 703
1020 1246 117 450 71 908 -134 1329 -277 567 -802 956 -1431 1060 -117 19
-395 27 -509 14z" fill="#002855"/>
<path d="M1535 4324 c-683 -237 -1170 -812 -1285 -1519 -25 -152 -27 -429 -4
-584 114 -777 693 -1409 1459 -1590 199 -48 468 -64 655 -40 l86 11 18 72 c10
39 24 94 32 121 21 74 204 755 204 760 0 3 -89 5 -199 5 l-199 0 -6 -37 c-4
-21 -13 -58 -21 -83 -7 -25 -39 -143 -71 -262 l-57 -218 -34 0 c-66 0 -229 21
-313 41 -272 63 -506 191 -714 389 -312 299 -476 679 -477 1106 0 138 14 272
32 307 9 16 67 17 1004 17 790 0 995 -3 995 -12 -1 -7 -27 -109 -59 -225 l-58
-213 198 0 198 0 11 43 c7 23 29 105 50 182 20 77 51 192 69 256 34 127 38
182 17 232 -17 43 -76 93 -123 106 -25 7 -390 11 -1102 11 -1008 0 -1063 1
-1057 18 18 45 119 193 193 280 121 144 270 265 440 358 45 25 84 53 87 62 3
9 19 71 37 137 27 103 57 214 75 278 7 21 5 21 -81 -9z" fill="#cf9c04" />
<path d="M4591 3007 c-50 -132 -381 -882 -403 -914 -18 -27 -39 -45 -56 -49
-48 -10 -52 -13 -52 -34 0 -19 6 -20 165 -20 156 0 165 1 165 19 0 20 -8 24
-68 36 -63 13 -61 48 13 211 l34 74 187 -2 186 -3 38 -91 c51 -122 56 -150 34
-175 -9 -10 -25 -19 -35 -19 -31 0 -49 -12 -49 -31 0 -18 10 -19 201 -19 l200
0 -3 22 c-2 16 -12 24 -36 29 -18 4 -42 15 -53 25 -41 37 -34 22 -329 729 -98
235 -118 267 -139 212z m68 -432 c39 -93 71 -173 71 -177 0 -5 -70 -8 -155 -8
-86 0 -155 4 -155 9 0 5 30 78 66 163 36 84 70 164 75 177 6 14 13 20 18 15 5
-5 41 -85 80 -179z" fill="#cf9c04" />
<path d="M7724 3016 c-68 -17 -142 -71 -179 -130 -26 -43 -29 -58 -30 -125 0
-137 44 -186 300 -335 182 -106 215 -138 223 -214 19 -207 -331 -233 -433 -32
-14 27 -30 72 -36 100 -8 39 -15 50 -30 50 -18 0 -19 -9 -19 -180 0 -173 1
-180 20 -180 13 0 22 9 26 25 3 13 13 27 22 30 10 2 64 -9 121 -25 57 -17 127
-30 155 -30 121 0 227 56 283 149 39 65 49 124 33 190 -25 105 -87 165 -275
266 -196 106 -265 166 -265 232 0 79 80 146 175 144 130 -1 225 -85 256 -223
9 -45 16 -58 31 -58 17 0 18 12 18 180 0 166 -1 180 -18 180 -11 0 -22 -12
-29 -31 -14 -36 -28 -36 -123 -1 -74 27 -163 34 -226 18z" fill="#cf9c04" />
<path d="M5170 3002 c-5 -2 -10 -12 -10 -23 0 -15 7 -19 34 -19 50 0 86 -16
129 -58 l37 -36 0 -387 c0 -374 -1 -387 -21 -412 -15 -20 -33 -28 -70 -33 -39
-5 -49 -10 -49 -25 0 -18 11 -19 180 -19 169 0 180 1 180 19 0 15 -10 20 -49
25 -37 5 -55 13 -70 33 -20 25 -21 38 -21 355 0 200 4 328 9 326 5 -1 150
-174 320 -383 190 -231 319 -381 331 -383 20 -3 20 3 20 440 0 254 4 457 10
477 13 45 36 60 93 61 42 0 47 2 47 23 l0 22 -185 0 -185 1 0 -23 c0 -21 5
-23 48 -23 64 0 92 -25 93 -83 5 -217 4 -597 -2 -595 -4 2 -140 166 -303 364
l-295 361 -130 -1 c-72 0 -135 -2 -141 -4z" fill="#cf9c04" />
<path d="M6330 2983 c0 -21 5 -23 45 -23 35 0 52 -6 70 -25 l25 -24 0 -400 c0
-241 -4 -410 -10 -426 -11 -28 -62 -55 -105 -55 -18 0 -25 -5 -25 -20 0 -19 7
-20 220 -20 208 0 220 1 220 19 0 15 -10 20 -48 25 -92 12 -100 37 -98 301 l1
130 223 3 223 2 -3 -199 c-3 -228 -2 -225 -90 -237 -38 -5 -48 -11 -48 -25 0
-18 12 -19 220 -19 213 0 220 1 220 20 0 15 -7 20 -25 20 -38 0 -92 25 -104
48 -7 14 -11 155 -11 427 l0 406 25 24 c18 19 35 25 70 25 40 0 45 2 45 23 l0
22 -220 1 -220 0 0 -23 c0 -21 5 -23 44 -23 29 0 52 -7 70 -21 l26 -20 0 -190
0 -189 -222 2 -223 3 1 185 2 184 26 23 c20 17 40 23 72 23 40 0 44 2 44 24
l0 23 -220 0 -220 -1 0 -23z" fill="#cf9c04" />
<path d="M8290 2983 c0 -21 5 -23 45 -23 36 0 52 -6 71 -25 l25 -25 -3 -419
c-3 -477 3 -444 -90 -457 -38 -5 -48 -11 -48 -25 0 -18 12 -19 220 -19 213 0
220 1 220 20 0 15 -7 20 -25 20 -38 0 -92 25 -104 48 -7 14 -11 155 -11 427
l0 406 25 24 c18 19 35 25 70 25 40 0 45 2 45 23 l0 22 -220 1 -220 0 0 -23z" fill="#cf9c04"  />
<path d="M8790 2983 c0 -20 5 -23 35 -23 43 0 89 -22 133 -63 l32 -31 -1 -375
c-1 -207 -4 -387 -8 -401 -8 -30 -62 -60 -108 -60 -26 0 -33 -4 -33 -20 0 -19
7 -20 185 -20 174 0 185 1 185 19 0 15 -10 20 -50 25 -93 12 -90 -1 -90 365 0
176 -3 326 -6 335 -22 58 58 -31 334 -370 216 -265 319 -384 332 -384 19 0 20
13 22 471 l3 471 24 19 c15 12 39 19 67 19 39 0 44 3 44 23 l0 23 -180 0 -180
0 0 -23 c0 -21 5 -23 44 -23 28 0 52 -7 67 -19 l24 -19 5 -321 c3 -177 2 -321
-2 -321 -3 0 -35 35 -69 78 -130 160 -376 460 -452 552 l-78 95 -140 0 c-137
0 -139 0 -139 -22z" fill="#cf9c04" />
</g>
</svg>
